<?xml version="1.0" encoding="utf-8"?>
<!-- Generator: Adobe Illustrator 24.1.3, SVG Export Plug-In . SVG Version: 6.00 Build 0)  -->
<svg version="1.1" id="Layer_1" xmlns="http://www.w3.org/2000/svg" xmlns:xlink="http://www.w3.org/1999/xlink" x="0px" y="0px"
	 viewBox="0 0 720 561.6" style="enable-background:new 0 0 720 561.6;" xml:space="preserve">
<style type="text/css">
	.st0{fill:none;stroke:#E1845D;stroke-width:25;stroke-miterlimit:10;}
	.st1{fill:#EDEDE6;}
	.st2{fill:none;}
	.st3{fill:none;stroke:#F8F8F3;stroke-width:10;stroke-miterlimit:10;}
	.st4{fill:#E1845B;}
	.st5{fill:#97B9BB;}
	.st6{fill:#E1845D;}
	.st7{fill:#EDECE6;}
</style>
<path class="st0" d="M89.68,126.44"/>
<polygon class="st1" points="280.43,346.18 233.58,303.95 141.46,303.95 69.61,273.97 69.61,158.57 221.96,72.39 277.6,72.39 
	277.6,126.44 246.54,126.44 246.54,103.44 230.14,103.44 100.66,176.68 100.66,253.28 147.68,272.89 245.5,272.89 301.22,323.1 "/>
<line class="st2" x1="501.86" y1="581.27" x2="490.09" y2="563.77"/>
<polygon class="st1" points="488.04,561.73 402.09,432.87 252.73,432.87 199.22,377.96 129.98,377.96 0.35,318.17 0.35,117.54 
	201.57,0 341.26,0 341.26,126.44 310.21,126.44 310.21,31.05 209.98,31.05 31.41,135.36 31.41,298.29 136.78,346.91 212.32,346.91 
	265.82,401.82 418.62,401.82 438.83,431.88 468.91,476.62 477.36,489.17 493.59,513.33 525.59,561.92 "/>
<polygon class="st1" points="688.59,350.16 688.59,169.45 484.27,31.05 421,31.05 421,126.44 389.95,126.44 389.95,0 493.8,0 
	719.65,152.99 719.65,319.11 "/>
<path class="st1" d="M646.2,420.45H477.89l-69.58-101.34H646.2V420.45z M494.24,389.4h120.91v-39.24H467.28L494.24,389.4z"/>
<path class="st3" d="M25.29,55.25"/>
<path class="st0" d="M309.64,120.27"/>
<path class="st0" d="M239.69,117.64"/>
<polyline class="st1" points="387.57,350.16 284.86,350.16 229.14,299.95 249.93,276.88 296.8,319.11 368.04,319.11 "/>
<line class="st2" x1="365.6" y1="319.11" x2="366.64" y2="319.11"/>
<polyline class="st1" points="646.2,280.95 615.15,280.93 615.15,198.98 473.79,103.44 484.63,103.44 484.63,126.44 453.58,126.44 
	453.58,72.39 483.31,72.39 646.2,182.48 646.2,280.95 "/>
<path class="st0" d="M309.64,294.07"/>
<path class="st0" d="M309.64,243.18"/>
<path class="st0" d="M403.54,246.6"/>
<path class="st0" d="M403.54,199.12"/>
<path class="st0" d="M211.72,172.54"/>
<path class="st0" d="M211.72,254.9"/>
<polygon class="st4" points="197.87,250.1 166.82,250.1 166.82,156.92 237.72,156.92 237.72,208.83 206.67,208.83 206.67,187.97 
	197.87,187.97 "/>
<polygon class="st4" points="277.6,250.1 246.54,250.1 246.54,187.97 237.72,187.97 237.72,219.12 206.67,219.12 206.67,156.92 
	277.6,156.92 "/>
<polygon class="st4" points="341.26,250.1 310.21,250.1 310.21,156.92 381.13,156.92 381.13,208.83 350.08,208.83 350.08,187.97 
	341.26,187.97 "/>
<polygon class="st4" points="421,250.1 389.95,250.1 389.95,187.97 381.13,187.97 381.13,219.12 350.08,219.12 350.08,156.92 
	421,156.92 "/>
<polyline class="st4" points="646.2,249.9 520.7,249.99 544.64,280.87 646.2,280.95 "/>
<polyline class="st4" points="548.63,249.95 559.49,249.9 524.51,203.62 524.51,172.45 504.07,156.92 453.58,156.92 453.58,250.1 
	484.63,250.1 484.63,187.97 493.45,187.97 493.45,214.03 517.57,245.95 520.7,249.99 "/>
<path class="st5" d="M453.58,156.92"/>
<path class="st6" d="M310.21,156.92"/>
<path class="st6" d="M310.21,156.92"/>
<path class="st6" d="M276.9,156.92"/>
<rect x="277.63" y="219.12" class="st7" width="32.62" height="31.05"/>
<path class="st7" d="M334.74,272.88"/>
<rect x="276.1" y="219.12" class="st4" width="35.66" height="31.05"/>
<polyline class="st4" points="421,219.05 453.62,219.05 453.62,250.1 421,250.1 "/>
</svg>
