<?xml version="1.0" encoding="utf-8"?>
<!-- Generator: Adobe Illustrator 24.1.3, SVG Export Plug-In . SVG Version: 6.00 Build 0)  -->
<svg version="1.1" id="Layer_1" xmlns="http://www.w3.org/2000/svg" xmlns:xlink="http://www.w3.org/1999/xlink" x="0px" y="0px"
	 viewBox="0 0 720 720" style="enable-background:new 0 0 720 720;" xml:space="preserve">
<style type="text/css">
	.st0{fill:#96B8BB;}
	.st1{fill:none;stroke:#E1845B;stroke-width:25;stroke-miterlimit:10;}
	.st2{fill:#EDEDE6;}
	.st3{fill:none;}
	.st4{fill:none;stroke:#F7F8F3;stroke-width:10;stroke-miterlimit:10;}
	.st5{fill:#E1845B;}
</style>
<rect class="st0" width="720" height="720"/>
<path class="st1" d="M166.48,309.74"/>
<polygon class="st2" points="292.4,424.25 252.49,388.29 174.04,388.29 112.85,362.76 112.85,264.47 242.6,191.08 277.77,191.08 
	277.77,237.11 251.33,237.11 251.33,217.52 249.56,217.52 139.29,279.9 139.29,345.14 179.33,361.84 262.65,361.84 310.1,404.6 "/>
<line class="st3" x1="464.78" y1="601.79" x2="455.3" y2="587.7"/>
<polyline class="st2" points="470.96,609.58 396.01,498.09 268.8,498.09 223.23,451.32 164.26,451.32 53.86,400.4 53.86,229.53 
	225.23,129.43 334.98,129.43 334.98,237.11 308.54,237.11 308.54,155.87 232.39,155.87 80.31,244.71 80.31,383.47 170.05,424.88 
	234.39,424.88 279.95,471.65 410.09,471.65 427.3,497.24 452.92,535.35 460.11,546.04 473.94,566.62 502.93,609.73 "/>
<polyline class="st2" points="640.02,413.36 640.02,273.75 466,155.87 384.11,155.87 384.11,237.11 357.66,237.11 357.66,129.43 
	474.12,129.43 666.46,259.72 666.46,398.78 "/>
<path class="st2" d="M540.61,487.51h-80.05l-59.26-86.31h139.31V487.51z M474.49,461.07h39.68v-33.42h-62.63L474.49,461.07z"/>
<path class="st4" d="M75.4,182.68"/>
<path class="st1" d="M317.3,305.5"/>
<path class="st1" d="M269.33,303.7"/>
<polyline class="st2" points="383.64,427.65 296.17,427.65 248.71,384.88 266.42,365.24 306.34,401.2 367.01,401.2 "/>
<line class="st3" x1="355.67" y1="441.85" x2="356.38" y2="441.85"/>
<polyline class="st2" points="603.91,368.71 577.47,368.69 577.47,298.89 457.08,217.52 437.72,217.52 437.72,237.11 411.27,237.11 
	411.27,191.08 465.18,191.08 603.91,284.84 "/>
<path class="st1" d="M317.3,424.68"/>
<path class="st1" d="M317.3,389.78"/>
<path class="st1" d="M381.68,392.13"/>
<path class="st1" d="M381.68,359.57"/>
<path class="st1" d="M250.15,341.34"/>
<path class="st1" d="M250.15,397.82"/>
<polygon class="st5" points="227.81,340.55 206.52,340.55 206.52,263.76 261.75,263.76 261.75,305.39 240.46,305.39 240.46,285.06 
	227.81,285.06 "/>
<polygon class="st5" points="295.71,340.55 274.42,340.55 274.42,285.06 261.75,285.06 261.75,305.39 240.46,305.39 240.46,263.76 
	295.71,263.76 "/>
<polygon class="st5" points="345.76,340.55 324.47,340.55 324.47,263.76 379.72,263.76 379.72,305.39 358.43,305.39 358.43,285.06 
	345.76,285.06 "/>
<polygon class="st5" points="413.67,340.55 392.38,340.55 392.38,285.06 379.72,285.06 379.72,305.39 358.43,305.39 358.43,263.76 
	413.67,263.76 "/>
<polyline class="st5" points="603.91,342.26 497.03,342.34 517.42,368.63 603.91,368.71 "/>
<polyline class="st5" points="520.81,342.43 520.81,330.02 500.27,302.85 500.27,276.29 482.87,263.07 439.87,263.07 439.87,340.55 
	466.31,340.55 466.31,289.52 473.82,289.52 473.82,311.71 494.37,338.9 497.02,342.43 "/>
<polygon class="st5" points="530.98,342.43 520.81,330.02 520.81,342.43 "/>
<rect x="294.86" y="319.25" class="st5" width="40.25" height="21.29"/>
<rect x="408.85" y="319.25" class="st5" width="40.25" height="21.29"/>
</svg>
